<svg width="197" height="42" viewBox="0 0 197 42" fill="none" xmlns="http://www.w3.org/2000/svg">
    <path d="M32.575 13.843h3.7V41.47h-8.916V19.365c0-3.7 2.445-5.513 5.216-5.513v-.009z" fill="#14377D"/>
    <path d="m0 13.861 5.252 7.253c3.886 5.512 8.507 6.556 12.839 6.556h4.415l-6.674-8.965c-3.886-5.512-7.084-4.844-11.416-4.844H0z" fill="url(#h44efbwjpa)"/>
    <path d="M30.697 7.278c-3.886 5.512-8.506 6.556-12.838 6.556h-4.416l6.675-8.965C23.994-.643 27.192.025 31.524.025h4.416l-5.243 7.253z" fill="url(#hn9lbola9b)"/>
    <path d="M62.1 34.117H49.632V13.852H40.69V41.47h13.86c5.858 0 7.55-4.45 7.55-6.757v-.596zM94.666 39.959c-1.897.631-5.495 1.51-9.074 1.51-4.964 0-8.552-1.227-11.053-3.58-2.454-2.344-3.83-5.842-3.83-9.77.046-8.9 6.619-13.992 15.534-13.992 3.514 0 6.21.678 7.549 1.273L92.5 20.29c-1.497-.678-3.31-1.154-6.294-1.154-5.122 0-9.036 2.857-9.036 8.662 0 5.806 3.551 8.782 8.6 8.782 1.366 0 2.5-.156 2.983-.358v-5.64h-4.192v-4.734h10.123v14.11h-.018zM99.499 14.447c2.027-.366 5.001-.613 8.385-.613 4.128 0 7.019.614 9.008 2.198 1.692 1.3 2.603 3.214 2.603 5.741 0 3.461-2.519 5.86-4.917 6.712v.119c1.943.77 3.021 2.564 3.718 5.082.874 3.132 1.692 6.712 2.231 7.774h-6.442c-.418-.769-1.116-3.012-1.906-6.391-.781-3.462-1.98-4.35-4.583-4.396h-1.859v5.1c0 5.11-2.984 5.678-4.704 5.678h-1.534V14.447zm6.238 11.758h2.482c3.142 0 5.001-1.548 5.001-3.947s-1.738-3.781-4.629-3.781c-1.534 0-2.399.082-2.854.201v7.527zM134.695 41.47c-7.985 0-12.717-5.97-12.717-13.553 0-7.985 5.215-13.955 13.154-13.955s12.839 6.126 12.839 13.48c0 8.771-5.336 14.027-13.248 14.027h-.037.009zm.279-4.78c4.137 0 6.498-3.837 6.498-9.047 0-4.78-2.286-8.892-6.498-8.892-4.211 0-6.581 4.03-6.581 9.01 0 4.982 2.444 8.929 6.544 8.929h.037zM157.648 13.962v15.732c0 4.624 1.813 6.95 4.899 6.95 3.087 0 4.974-2.216 4.974-6.95V13.962h6.098v15.375c0 8.222-4.211 12.132-11.276 12.132-7.065 0-10.793-3.754-10.793-12.215V13.962h6.098zM183.762 18.412v6.456h2.035c3.301 0 5.002-1.319 5.002-3.324s-1.59-3.122-4.397-3.122h-2.65l.01-.01zm0 10.824v6.593c0 4.816-2.929 5.64-4.007 5.64h-2.129V13.962h8.013c3.784 0 6.108.357 8.098 1.52 1.915.998 3.263 2.848 3.263 5.33 0 9.065-11.082 8.424-13.229 8.424h-.009z" fill="#14377D"/>
    <defs>
        <linearGradient id="h44efbwjpa" x1="20.015" y1="27.78" x2="3.344" y2="13.577" gradientUnits="userSpaceOnUse">
            <stop stop-color="#4A8F33"/>
            <stop offset=".21" stop-color="#448C35"/>
            <stop offset=".47" stop-color="#34843C"/>
            <stop offset=".76" stop-color="#1A7748"/>
            <stop offset="1" stop-color="#006B54"/>
        </linearGradient>
        <linearGradient id="hn9lbola9b" x1="15.934" y1="13.944" x2="32.605" y2="-.259" gradientUnits="userSpaceOnUse">
            <stop stop-color="#D1541D"/>
            <stop offset=".3" stop-color="#D0501C"/>
            <stop offset=".53" stop-color="#CD471C"/>
            <stop offset=".74" stop-color="#CA361C"/>
            <stop offset=".93" stop-color="#C41F1C"/>
            <stop offset="1" stop-color="#C2151C"/>
        </linearGradient>
    </defs>
</svg>
